{"title":"And You Will Know Us By The Trail of Dead _SONG_ONLY_J_Fallon_72","uid":6162312,"size":78278399,"categoryP":"video","categoryS":"hd___tv_shows","magnet":"?xt=urn:btih:f2f09071fc9a8685d7d727ea7cf021fb5b492df6&amp;dn=And+You+Will+Know+Us+By+The+Trail+of+Dead+_SONG_ONLY_J_Fallon_72&amp;tr=udp%3A%2F%2Ftracker.openbittorrent.com%3A80&amp;tr=udp%3A%2F%2Fopen.demonii.com%3A1337&amp;tr=udp%3A%2F%2Ftracker.coppersurfer.tk%3A6969&amp;tr=udp%3A%2F%2Fexodus.desync.com%3A6969","seeders":0,"leechers":1,"uploader":"thetorrentlord","files":3,"time":1297259508,"description":"And You Will Know Us By The Trail of Dead _SONG_ONLY_J_Fallon_720p_20110207_TTL.avi\nFormat                           : AVI\nFormat/Info                      : Audio Video Interleave\nFile size                        : 68.7 MiB\nDuration                         : 2mn 35s\nOverall bit rate                 : 3 717 Kbps\n\nVideo\nID                               : 0\nFormat                           : MPEG-4 Visual\nFormat profile                   : Advanced Simple@L5\nFormat settings, BVOP            : Yes\nFormat settings, QPel            : No\nFormat settings, GMC             : No warppoints\nFormat settings, Matrix          : Default (H.263)\nCodec ID                         : XVID\nCodec ID/Hint                    : XviD\nDuration                         : 2mn 35s\nBit rate                         : 3 387 Kbps\nWidth                            : 1 280 pixels\nHeight                           : 720 pixels\nDisplay aspect ratio             : 16:9\nFrame rate                       : 29.970 fps\nColor space                      : YUV\nChroma subsampling               : 4:2:0\nBit depth                        : 8 bits\nScan type                        : Progressive\nBits/(Pixel*Frame)               : 0.123\nStream size                      : 62.6 MiB (91%)\nWriting library                  : XviD 1.2.0.dev47 (UTC 2006-11-01)\n\nAudio\nID                               : 1\nFormat                           : MPEG Audio\nFormat version                   : Version 1\nFormat profile                   : Layer 2\nCodec ID                         : 50\nDuration                         : 2mn 35s\nBit rate mode                    : Constant\nBit rate                         : 320 Kbps\nChannel(s)                       : 2 channels\nSampling rate                    : 48.0 KHz\nBit depth                        : 16 bits\nStream size                      : 5.91 MiB (9%)\nAlignment                        : Aligned on interleaves\nInterleave, duration             : 33 ms (1.00 video frame)\n\n","torrent":{"xt":"urn:btih:f2f09071fc9a8685d7d727ea7cf021fb5b492df6","amp;dn":"And+You+Will+Know+Us+By+The+Trail+of+Dead+_SONG_ONLY_J_Fallon_72","amp;tr":["udp%3A%2F%2Ftracker.openbittorrent.com%3A80","udp%3A%2F%2Fopen.demonii.com%3A1337","udp%3A%2F%2Ftracker.coppersurfer.tk%3A6969","udp%3A%2F%2Fexodus.desync.com%3A6969"],"infoHash":"f2f09071fc9a8685d7d727ea7cf021fb5b492df6","infoHashBuffer":{"type":"Buffer","data":[242,240,144,113,252,154,134,133,215,215,39,234,124,240,33,251,91,73,45,246]},"announce":[],"urlList":[]}}